<?xml version="1.0" encoding="UTF-8" standalone="no"?>
<svg
   xmlns:dc="http://purl.org/dc/elements/1.1/"
   xmlns:cc="http://creativecommons.org/ns#"
   xmlns:rdf="http://www.w3.org/1999/02/22-rdf-syntax-ns#"
   xmlns:svg="http://www.w3.org/2000/svg"
   xmlns="http://www.w3.org/2000/svg"
   id="svg8"
   version="1.1"
   viewBox="0 0 58.976922 16.813368"
   height="63.546585"
   width="222.90491">
  <defs
     id="defs2" />
  <metadata
     id="metadata5">
    <rdf:RDF>
      <cc:Work
         rdf:about="">
        <dc:format>image/svg+xml</dc:format>
        <dc:type
           rdf:resource="http://purl.org/dc/dcmitype/StillImage" />
        <dc:title></dc:title>
      </cc:Work>
    </rdf:RDF>
  </metadata>
  <g
     transform="translate(-68.692318,-85.351663)"
     id="layer1">
    <g
       style="fill:#007e9e;fill-opacity:1"
       id="g975">
      <path
         style="font-style:normal;font-variant:normal;font-weight:normal;font-stretch:normal;font-size:10.5833px;line-height:0.75;font-family:'Major Mono Display';-inkscape-font-specification:'Major Mono Display';letter-spacing:-0.264583px;opacity:1;fill:#007e9e;fill-opacity:1;stroke:none;stroke-width:0.264583;stop-opacity:1"
         d="m 69.126233,85.510412 h 5.185817 v 0.391582 h -4.794235 v 2.984491 h 4.16982 v 0.391582 h -4.16982 v 3.206739 h 4.794235 v 0.391583 h -5.185817 z"
         id="path839" />
      <path
         style="font-style:normal;font-variant:normal;font-weight:normal;font-stretch:normal;font-size:10.5833px;line-height:0.75;font-family:'Major Mono Display';-inkscape-font-specification:'Major Mono Display';letter-spacing:-0.264583px;opacity:1;fill:#007e9e;fill-opacity:1;stroke:none;stroke-width:0.264583;stop-opacity:1"
         d="m 76.960355,92.876389 v -7.365977 h 0.391582 v 6.974394 h 5.1329 v 0.391583 z"
         id="path841" />
      <path
         style="font-style:normal;font-variant:normal;font-weight:normal;font-stretch:normal;font-size:10.5833px;line-height:0.75;font-family:'Major Mono Display';-inkscape-font-specification:'Major Mono Display';letter-spacing:-0.264583px;opacity:1;fill:#007e9e;fill-opacity:1;stroke:none;stroke-width:0.264583;stop-opacity:1"
         d="m 84.265311,85.510412 h 5.185817 v 0.391582 h -4.794234 v 2.984491 h 4.16982 v 0.391582 h -4.16982 v 3.206739 h 4.794234 v 0.391583 h -5.185817 z"
         id="path843" />
      <path
         style="font-style:normal;font-variant:normal;font-weight:normal;font-stretch:normal;font-size:10.5833px;line-height:0.75;font-family:'Major Mono Display';-inkscape-font-specification:'Major Mono Display';letter-spacing:-0.264583px;opacity:1;fill:#007e9e;fill-opacity:1;stroke:none;stroke-width:0.264583;stop-opacity:1"
         d="m 91.845435,90.061231 q 0,0.698498 0.349249,1.291162 0.359832,0.592665 0.952497,0.941914 0.603248,0.349249 1.301745,0.349249 0.719665,0 1.301746,-0.285749 0.582082,-0.285749 0.910164,-0.793748 0.338666,-0.507998 0.349249,-1.142996 h 0.380999 q 0,0.730248 -0.391582,1.333496 -0.380999,0.592665 -1.05833,0.941913 -0.666748,0.338666 -1.492246,0.338666 -0.80433,0 -1.492245,-0.402165 -0.687914,-0.402166 -1.09008,-1.079497 -0.402165,-0.687914 -0.402165,-1.492245 V 88.32557 q 0,-0.804331 0.391582,-1.481662 0.402165,-0.687915 1.079497,-1.09008 0.687914,-0.402165 1.492245,-0.402165 0.814914,0 1.481662,0.349248 0.677331,0.338666 1.068913,0.941914 0.391582,0.592665 0.391582,1.322913 h -0.380999 q -0.01058,-0.634998 -0.349248,-1.142997 -0.338666,-0.507998 -0.920748,-0.793747 -0.571498,-0.285749 -1.291162,-0.285749 -0.698498,0 -1.291163,0.349248 -0.592664,0.349249 -0.941913,0.941914 -0.349249,0.592665 -0.349249,1.291163 z"
         id="path845" />
      <path
         style="font-style:normal;font-variant:normal;font-weight:normal;font-stretch:normal;font-size:10.5833px;line-height:0.75;font-family:'Major Mono Display';-inkscape-font-specification:'Major Mono Display';letter-spacing:-0.264583px;opacity:1;fill:#007e9e;fill-opacity:1;stroke:none;stroke-width:0.264583;stop-opacity:1"
         d="m 104.91829,85.510412 v 0.391582 h -2.78341 v 6.974395 h -0.381 v -6.974395 h -2.783406 v -0.391582 z"
         id="path847" />
      <path
         id="path849"
         style="font-style:normal;font-variant:normal;font-weight:normal;font-stretch:normal;font-size:10.5833px;line-height:0.75;font-family:'Major Mono Display';-inkscape-font-specification:'Major Mono Display';letter-spacing:-0.264583px;opacity:1;fill:#007e9e;fill-opacity:1;stroke:none;stroke-width:0.999999;stop-opacity:1"
         d="m 404.03125,323.18945 v 27.83985 h 1.48047 v -9.56055 h 10.03906 l 1.2793,-0.0391 6.83984,9.59961 h 1.76172 l -7.08008,-9.88086 c 1.97332,-0.53333 3.5865,-1.61357 4.83985,-3.24024 1.27997,-1.65332 1.91992,-3.51961 1.91992,-5.59961 0,-1.78666 -0.46708,-3.41224 -1.40039,-4.8789 -0.90666,-1.46667 -2.15977,-2.57365 -3.75977,-3.32031 -0.69334,-0.31999 -1.46699,-0.54635 -2.32031,-0.67969 -0.82668,-0.16 -1.82668,-0.24024 -3,-0.24024 z m 1.48047,1.48047 h 9.11914 c 1.89332,0 3.36039,0.21201 4.40039,0.63867 1.44,0.61334 2.55938,1.54746 3.35937,2.80079 0.82666,1.25332 1.24024,2.65255 1.24024,4.19921 0,1.38667 -0.34575,2.66652 -1.03906,3.83985 -0.69334,1.17333 -1.62744,2.10745 -2.80078,2.80078 -1.17332,0.69333 -2.45319,1.03906 -3.83985,1.03906 h -10.43945 z"
         transform="scale(0.26458333)" />
      <path
         style="font-style:normal;font-variant:normal;font-weight:normal;font-stretch:normal;font-size:10.5833px;line-height:0.75;font-family:'Major Mono Display';-inkscape-font-specification:'Major Mono Display';letter-spacing:-0.264583px;opacity:1;fill:#007e9e;fill-opacity:1;stroke:none;stroke-width:0.264583;stop-opacity:1"
         d="m 119.47529,85.510412 v 0.391582 h -2.20133 v 6.582812 h 2.20133 v 0.391583 h -4.77307 v -0.391583 h 2.19074 v -6.582812 h -2.19074 v -0.391582 z"
         id="path851" />
      <path
         id="path853"
         style="font-style:normal;font-variant:normal;font-weight:normal;font-stretch:normal;font-size:10.5833px;line-height:0.75;font-family:'Major Mono Display';-inkscape-font-specification:'Major Mono Display';letter-spacing:-0.264583px;opacity:1;fill:#007e9e;fill-opacity:1;stroke:none;stroke-width:0.264583;stop-opacity:1"
         d="m 122.12359,90.061231 q 0,0.698498 0.34925,1.291162 0.35983,0.592665 0.9525,0.941914 0.60324,0.349249 1.30174,0.349249 0.71967,0 1.30175,-0.285749 0.58208,-0.285749 0.91016,-0.793748 0.33867,-0.507998 0.34925,-1.142996 h 0.381 q 0,0.730248 -0.39158,1.333496 -0.381,0.592665 -1.05833,0.941913 -0.66675,0.338666 -1.49225,0.338666 -0.80433,0 -1.49224,-0.402165 -0.68792,-0.402166 -1.09008,-1.079497 -0.40217,-0.687914 -0.40217,-1.492245 V 88.32557 q 0,-0.804331 0.39158,-1.481662 0.40217,-0.687915 1.0795,-1.09008 0.68792,-0.402165 1.49225,-0.402165 0.81491,0 1.48166,0.349248 0.67733,0.338666 1.06891,0.941914 0.39158,0.592665 0.39158,1.322913 h -0.381 q -0.0106,-0.634998 -0.34924,-1.142997 -0.33867,-0.507998 -0.92075,-0.793747 -0.5715,-0.285749 -1.29116,-0.285749 -0.6985,0 -1.29117,0.349248 -0.59266,0.349249 -0.94191,0.941914 -0.34925,0.592665 -0.34925,1.291163 z" />
    </g>
    <g
       style="fill:#212529;fill-opacity:1"
       id="g965">
      <path
         style="font-style:normal;font-variant:normal;font-weight:normal;font-stretch:normal;font-size:10.5833px;line-height:0.75;font-family:'Major Mono Display';-inkscape-font-specification:'Major Mono Display';letter-spacing:-0.264583px;opacity:1;fill:#212529;fill-opacity:1;stroke:none;stroke-width:0.264583;stop-opacity:1"
         d="m 69.0839,102.00628 h -0.391582 v -7.365976 h 0.423332 l 2.571742,4.540235 2.561158,-4.540235 h 0.391582 v 7.365976 H 74.24855 v -6.582812 l -2.381242,4.20157 H 71.496892 L 69.0839,95.370551 Z"
         id="path925" />
      <path
         id="path921"
         style="font-style:normal;font-variant:normal;font-weight:normal;font-stretch:normal;font-size:10.5833px;line-height:0.75;font-family:'Major Mono Display';-inkscape-font-specification:'Major Mono Display';letter-spacing:-0.264583px;opacity:1;fill:#212529;fill-opacity:1;stroke:none;stroke-width:0.999999;stop-opacity:1"
         d="m 298.71289,357.69531 -11.43945,27.83985 h 1.56054 l 3.79883,-9.19922 h 13.72071 l 3.75976,9.19922 h 1.59961 l -11.43945,-27.83985 z m 0.76172,1.91992 6.2793,15.28125 h -12.51953 z"
         transform="scale(0.26458333)" />
      <path
         style="font-style:normal;font-variant:normal;font-weight:normal;font-stretch:normal;font-size:10.5833px;line-height:0.75;font-family:'Major Mono Display';-inkscape-font-specification:'Major Mono Display';letter-spacing:-0.264583px;opacity:1;fill:#212529;fill-opacity:1;stroke:none;stroke-width:0.264583;stop-opacity:1"
         d="m 89.398212,100.49287 q -0.285749,0.73025 -1.037164,1.20649 -0.751414,0.46567 -1.608661,0.46567 -0.825498,0 -1.523995,-0.41275 -0.698498,-0.41275 -1.111247,-1.13241 -0.402165,-0.73025 -0.402165,-1.59808 v -1.481662 q 0,-0.846664 0.402165,-1.545162 0.412749,-0.698498 1.100663,-1.100663 0.698498,-0.412749 1.534579,-0.412749 0.687914,0 1.259413,0.232833 0.571498,0.222249 0.973663,0.656164 0.328082,0.359833 0.529165,0.804331 0.211666,0.444499 0.211666,0.899581 h -0.380999 q -0.01058,-0.391582 -0.201082,-0.772581 -0.179917,-0.380999 -0.465666,-0.687915 -0.709081,-0.740831 -1.92616,-0.740831 -0.730248,0 -1.344079,0.359833 -0.603248,0.349248 -0.952497,0.96308 -0.349249,0.603248 -0.349249,1.344079 v 1.481662 q 0,0.772581 0.349249,1.40758 0.359832,0.62441 0.96308,0.98425 0.613831,0.35983 1.333496,0.35983 0.730248,0 1.333496,-0.34925 0.613831,-0.35983 0.96308,-0.96308 0.349249,-0.613833 0.349249,-1.333497 v -0.370416 h -2.645825 v -0.391582 h 3.037407 v 3.640655 h -0.391582 z"
         id="path919" />
      <path
         style="font-style:normal;font-variant:normal;font-weight:normal;font-stretch:normal;font-size:10.5833px;line-height:0.75;font-family:'Major Mono Display';-inkscape-font-specification:'Major Mono Display';letter-spacing:-0.264583px;opacity:1;fill:#212529;fill-opacity:1;stroke:none;stroke-width:0.264583;stop-opacity:1"
         d="m 91.496186,102.00628 v -7.365976 h 0.412749 l 5.143483,4.995317 V 94.640304 H 97.444 v 7.365976 h -0.391582 v -1.82033 l -5.16465,-5.037648 v 6.857978 z"
         id="path917" />
      <path
         style="font-style:normal;font-variant:normal;font-weight:normal;font-stretch:normal;font-size:10.5833px;line-height:0.75;font-family:'Major Mono Display';-inkscape-font-specification:'Major Mono Display';letter-spacing:-0.264583px;opacity:1;fill:#212529;fill-opacity:1;stroke:none;stroke-width:0.264583;stop-opacity:1"
         d="m 99.40439,94.640304 h 5.18582 v 0.391582 h -4.794238 v 2.98449 h 4.169818 v 0.391582 h -4.169818 v 3.206742 h 4.794238 v 0.39158 h -5.18582 z"
         id="path915" />
      <path
         style="font-style:normal;font-variant:normal;font-weight:normal;font-stretch:normal;font-size:10.5833px;line-height:0.75;font-family:'Major Mono Display';-inkscape-font-specification:'Major Mono Display';letter-spacing:-0.264583px;opacity:1;fill:#212529;fill-opacity:1;stroke:none;stroke-width:0.264583;stop-opacity:1"
         d="m 112.48783,94.640304 v 0.391582 h -2.78341 v 6.974394 h -0.381 v -6.974394 h -2.78341 v -0.391582 z"
         id="path913" />
      <path
         style="font-style:normal;font-variant:normal;font-weight:normal;font-stretch:normal;font-size:10.5833px;line-height:0.75;font-family:'Major Mono Display';-inkscape-font-specification:'Major Mono Display';letter-spacing:-0.264583px;opacity:1;fill:#212529;fill-opacity:1;stroke:none;stroke-width:0.264583;stop-opacity:1"
         d="m 119.47529,94.640304 v 0.391582 h -2.20133 v 6.582814 h 2.20133 v 0.39158 h -4.77307 v -0.39158 h 2.19074 v -6.582814 h -2.19074 v -0.391582 z"
         id="path911" />
      <path
         style="font-style:normal;font-variant:normal;font-weight:normal;font-stretch:normal;font-size:10.5833px;line-height:0.75;font-family:'Major Mono Display';-inkscape-font-specification:'Major Mono Display';letter-spacing:-0.264583px;opacity:1;fill:#212529;fill-opacity:1;stroke:none;stroke-width:0.264583;stop-opacity:1"
         d="m 122.12359,99.191123 q 0,0.698497 0.34925,1.291167 0.35983,0.59266 0.9525,0.94191 0.60324,0.34925 1.30174,0.34925 0.71967,0 1.30175,-0.28575 0.58208,-0.28575 0.91016,-0.79375 0.33867,-0.508 0.34925,-1.142995 h 0.381 q 0,0.730245 -0.39158,1.333495 -0.381,0.59267 -1.05833,0.94191 -0.66675,0.33867 -1.49225,0.33867 -0.80433,0 -1.49224,-0.40217 -0.68792,-0.40216 -1.09008,-1.07949 -0.40217,-0.687917 -0.40217,-1.492247 v -1.735662 q 0,-0.80433 0.39158,-1.481661 0.40217,-0.687915 1.0795,-1.09008 0.68792,-0.402166 1.49225,-0.402166 0.81491,0 1.48166,0.349249 0.67733,0.338666 1.06891,0.941914 0.39158,0.592665 0.39158,1.322912 h -0.381 q -0.0106,-0.634998 -0.34924,-1.142996 -0.33867,-0.507998 -0.92075,-0.793748 -0.5715,-0.285749 -1.29116,-0.285749 -0.6985,0 -1.29117,0.349249 -0.59266,0.349249 -0.94191,0.941914 -0.34925,0.592665 -0.34925,1.291162 z"
         id="path869" />
    </g>
  </g>
</svg>
