<?xml version="1.0" encoding="UTF-8" standalone="no"?>
<svg
   xmlns:dc="http://purl.org/dc/elements/1.1/"
   xmlns:cc="http://creativecommons.org/ns#"
   xmlns:rdf="http://www.w3.org/1999/02/22-rdf-syntax-ns#"
   xmlns:svg="http://www.w3.org/2000/svg"
   xmlns="http://www.w3.org/2000/svg"
   id="svg8"
   version="1.1"
   viewBox="0 0 44.450031 11.041711"
   height="41.732449"
   width="168.00012">
  <defs
     id="defs2" />
  <metadata
     id="metadata5">
    <rdf:RDF>
      <cc:Work
         rdf:about="">
        <dc:format>image/svg+xml</dc:format>
        <dc:type
           rdf:resource="http://purl.org/dc/dcmitype/StillImage" />
        <dc:title></dc:title>
      </cc:Work>
    </rdf:RDF>
  </metadata>
  <g
     id="g943"
     transform="translate(-93.353897,-123.09121)"
     style="opacity:1;stop-opacity:1">
    <rect
       y="123.09121"
       x="93.353897"
       height="2.1166666"
       width="5.2916665"
       id="rect887"
       style="fill:#da0000;fill-opacity:1;stroke-width:1.09233" />
    <rect
       style="fill:#f4ee00;fill-opacity:1;stroke-width:1.09233"
       id="rect889"
       width="5.2916665"
       height="2.1166666"
       x="99.880287"
       y="123.09121" />
    <rect
       y="123.09121"
       x="106.40668"
       height="2.1166666"
       width="5.2916665"
       id="rect891"
       style="fill:#0060ee;fill-opacity:1;stroke-width:1.09233" />
    <rect
       style="fill:#9900cc;fill-opacity:1;stroke-width:1.09233"
       id="rect893"
       width="5.2916665"
       height="2.1166666"
       x="112.93307"
       y="123.09121" />
    <rect
       y="123.09121"
       x="119.45947"
       height="2.1166666"
       width="5.2916665"
       id="rect895"
       style="fill:#ae5dff;fill-opacity:1;stroke-width:1.09233" />
    <rect
       style="fill:#00a800;fill-opacity:1;stroke-width:1.09233"
       id="rect897"
       width="5.2916665"
       height="2.1166666"
       x="125.98586"
       y="123.09121" />
    <rect
       y="123.09121"
       x="132.51225"
       height="2.1166666"
       width="5.2916665"
       id="rect899"
       style="fill:#ff6600;fill-opacity:1;stroke-width:1.09233" />
    <path
       d="m 94.738272,129.23272 -0.593303,-1.10969 h -0.04395 l 0.109871,1.10969 v 4.81235 H 93.353897 V 126.3541 H 93.9472 l 3.098362,4.79038 0.571329,1.05476 h 0.05494 l -0.120858,-1.05476 v -4.79038 h 0.856994 v 7.69097 H 97.81466 Z"
       style="font-style:normal;font-variant:normal;font-weight:normal;font-stretch:normal;font-size:10.9871px;line-height:1.25;font-family:'PT Mono';-inkscape-font-specification:'PT Mono';opacity:1;fill:#000000;fill-opacity:1;stroke:none;stroke-width:0.274678;stop-opacity:1"
       id="path905" />
    <path
       d="m 99.777059,133.22104 4.339901,-6.05389 h -4.339901 v -0.81305 h 5.383681 v 0.82404 l -4.36188,6.05389 h 4.36188 v 0.81304 h -5.383681 z"
       style="font-style:normal;font-variant:normal;font-weight:normal;font-stretch:normal;font-size:10.9871px;line-height:1.25;font-family:'PT Mono';-inkscape-font-specification:'PT Mono';opacity:1;fill:#000000;fill-opacity:1;stroke:none;stroke-width:0.274678;stop-opacity:1"
       id="path907" />
    <path
       d="m 111.496,128.11204 q 0,0.27468 -0.0879,0.56034 -0.0879,0.28567 -0.26369,0.53837 -0.1758,0.24172 -0.45048,0.4285 -0.27467,0.18678 -0.64823,0.28566 v 0.0439 q 0.32961,0.0549 0.62626,0.18678 0.30764,0.13185 0.53837,0.36258 0.23073,0.23072 0.37356,0.56034 0.14283,0.32961 0.14283,0.78008 0,0.59331 -0.2527,1.03279 -0.24172,0.4285 -0.64824,0.70317 -0.39554,0.27468 -0.91193,0.40653 -0.51639,0.13184 -1.05476,0.13184 -0.18678,0 -0.43949,0 -0.2527,0 -0.52738,-0.022 -0.27467,-0.011 -0.54935,-0.0439 -0.27468,-0.022 -0.48343,-0.0769 v -7.57011 q 0.40652,-0.0659 0.94489,-0.10987 0.53836,-0.0439 1.17562,-0.0439 0.42849,0 0.86798,0.0769 0.45047,0.0659 0.81304,0.27468 0.36258,0.19776 0.59331,0.56034 0.24171,0.36257 0.24171,0.9339 z m -2.549,5.22986 q 0.35158,0 0.6812,-0.0879 0.32961,-0.0879 0.58231,-0.26369 0.25271,-0.17579 0.39554,-0.43948 0.15382,-0.26369 0.15382,-0.62627 0,-0.45047 -0.18678,-0.72514 -0.1758,-0.27468 -0.47245,-0.4285 -0.28566,-0.15382 -0.64824,-0.20876 -0.36257,-0.0549 -0.72515,-0.0549 h -0.95587 v 2.75776 q 0.0769,0.022 0.21974,0.033 0.14283,0.011 0.30764,0.022 0.1648,0.011 0.3406,0.022 0.17579,0 0.30764,0 z m -0.6043,-3.60377 q 0.18679,0 0.45048,-0.011 0.26369,-0.011 0.43948,-0.033 0.26369,-0.0879 0.49442,-0.20875 0.23073,-0.13185 0.40652,-0.30764 0.18678,-0.17579 0.28567,-0.39554 0.10987,-0.21974 0.10987,-0.48343 0,-0.36257 -0.14283,-0.60429 -0.13185,-0.24172 -0.36258,-0.38455 -0.23073,-0.14283 -0.52738,-0.19777 -0.29665,-0.0549 -0.60429,-0.0549 -0.36257,0 -0.67021,0.022 -0.29665,0.011 -0.45047,0.0439 v 2.61493 z"
       style="font-style:normal;font-variant:normal;font-weight:normal;font-stretch:normal;font-size:10.9871px;line-height:1.25;font-family:'PT Mono';-inkscape-font-specification:'PT Mono';opacity:1;fill:#000000;fill-opacity:1;stroke:none;stroke-width:0.274678;stop-opacity:1"
       id="path909" />
    <path
       d="m 118.08397,128.11204 q 0,0.27468 -0.0879,0.56034 -0.0879,0.28567 -0.26369,0.53837 -0.17579,0.24172 -0.45047,0.4285 -0.27467,0.18678 -0.64824,0.28566 v 0.0439 q 0.32962,0.0549 0.62627,0.18678 0.30764,0.13185 0.53837,0.36258 0.23073,0.23072 0.37356,0.56034 0.14283,0.32961 0.14283,0.78008 0,0.59331 -0.2527,1.03279 -0.24172,0.4285 -0.64824,0.70317 -0.39554,0.27468 -0.91193,0.40653 -0.51639,0.13184 -1.05476,0.13184 -0.18678,0 -0.43949,0 -0.2527,0 -0.52738,-0.022 -0.27467,-0.011 -0.54935,-0.0439 -0.27468,-0.022 -0.48343,-0.0769 v -7.57011 q 0.40652,-0.0659 0.94489,-0.10987 0.53836,-0.0439 1.17562,-0.0439 0.42849,0 0.86798,0.0769 0.45047,0.0659 0.81304,0.27468 0.36258,0.19776 0.59331,0.56034 0.24171,0.36257 0.24171,0.9339 z m -2.54901,5.22986 q 0.35159,0 0.6812,-0.0879 0.32962,-0.0879 0.58232,-0.26369 0.2527,-0.17579 0.39554,-0.43948 0.15382,-0.26369 0.15382,-0.62627 0,-0.45047 -0.18679,-0.72514 -0.17579,-0.27468 -0.47244,-0.4285 -0.28566,-0.15382 -0.64824,-0.20876 -0.36257,-0.0549 -0.72515,-0.0549 h -0.95588 v 2.75776 q 0.0769,0.022 0.21975,0.033 0.14283,0.011 0.30764,0.022 0.1648,0.011 0.3406,0.022 0.17579,0 0.30763,0 z m -0.60429,-3.60377 q 0.18678,0 0.45047,-0.011 0.2637,-0.011 0.43949,-0.033 0.26369,-0.0879 0.49442,-0.20875 0.23073,-0.13185 0.40652,-0.30764 0.18678,-0.17579 0.28567,-0.39554 0.10987,-0.21974 0.10987,-0.48343 0,-0.36257 -0.14284,-0.60429 -0.13184,-0.24172 -0.36257,-0.38455 -0.23073,-0.14283 -0.52738,-0.19777 -0.29665,-0.0549 -0.60429,-0.0549 -0.36258,0 -0.67021,0.022 -0.29666,0.011 -0.45048,0.0439 v 2.61493 z"
       style="font-style:normal;font-variant:normal;font-weight:normal;font-stretch:normal;font-size:10.9871px;line-height:1.25;font-family:'PT Mono';-inkscape-font-specification:'PT Mono';opacity:1;fill:#000000;fill-opacity:1;stroke:none;stroke-width:0.274678;stop-opacity:1"
       id="path911" />
    <path
       d="m 119.37616,126.3541 h 5.71329 v 2.01064 h -0.81305 v -1.19759 h -1.59313 v 6.06488 h 1.20858 v 0.81304 h -3.32909 v -0.81304 h 1.20858 v -6.06488 h -1.58214 v 1.19759 h -0.81304 z"
       style="font-style:normal;font-variant:normal;font-weight:normal;font-stretch:normal;font-size:10.9871px;line-height:1.25;font-family:'PT Mono';-inkscape-font-specification:'PT Mono';opacity:1;fill:#000000;fill-opacity:1;stroke:none;stroke-width:0.274678;stop-opacity:1"
       id="path913" />
    <path
       d="m 126.70026,126.3541 h 4.5157 v 0.81305 h -3.60377 v 2.51605 h 3.32909 v 0.81304 h -3.32909 v 2.73579 h 3.6587 v 0.81304 h -4.57063 z"
       style="font-style:normal;font-variant:normal;font-weight:normal;font-stretch:normal;font-size:10.9871px;line-height:1.25;font-family:'PT Mono';-inkscape-font-specification:'PT Mono';opacity:1;fill:#000000;fill-opacity:1;stroke:none;stroke-width:0.274678;stop-opacity:1"
       id="path915" />
    <path
       d="m 133.3981,126.3541 h 4.40583 v 0.81305 h -3.4939 v 2.62592 h 3.27416 v 0.81304 h -3.27416 v 3.43896 h -0.91193 z"
       style="font-style:normal;font-variant:normal;font-weight:normal;font-stretch:normal;font-size:10.9871px;line-height:1.25;font-family:'PT Mono';-inkscape-font-specification:'PT Mono';opacity:1;fill:#000000;fill-opacity:1;stroke:none;stroke-width:0.274678;stop-opacity:1"
       id="path917" />
  </g>
</svg>
